<mxfile host="app.diagrams.net" modified="2023-08-31T15:10:03.751Z" agent="Mozilla/5.0 (Windows NT 10.0; Win64; x64) AppleWebKit/537.36 (KHTML, like Gecko) Chrome/116.0.0.0 Safari/537.36" etag="AueWl8i9_Ri0cLxe7pjq" version="21.6.9" type="github">
  <diagram id="wFE0QG_FPsp0jaGvCLVb" name="Page-1">
    <mxGraphModel dx="2950" dy="1130" grid="1" gridSize="10" guides="1" tooltips="1" connect="1" arrows="1" fold="1" page="1" pageScale="1" pageWidth="850" pageHeight="1100" math="0" shadow="0">
      <root>
        <mxCell id="0" />
        <mxCell id="1" parent="0" />
        <mxCell id="XzS5bTZx3EFFYI8axKuy-56" value="" style="rounded=0;whiteSpace=wrap;html=1;fillColor=#dae8fc;gradientColor=#7ea6e0;strokeColor=#6c8ebf;" vertex="1" parent="1">
          <mxGeometry x="395" y="270" width="570" height="680" as="geometry" />
        </mxCell>
        <mxCell id="XzS5bTZx3EFFYI8axKuy-54" value="" style="rounded=0;whiteSpace=wrap;html=1;fillColor=#dae8fc;strokeColor=#6c8ebf;" vertex="1" parent="1">
          <mxGeometry x="94" y="270" width="280" height="680" as="geometry" />
        </mxCell>
        <mxCell id="XzS5bTZx3EFFYI8axKuy-51" value="" style="rounded=0;whiteSpace=wrap;html=1;fillColor=#f8cecc;strokeColor=#b85450;gradientColor=#ea6b66;" vertex="1" parent="1">
          <mxGeometry x="-470" y="270" width="540" height="680" as="geometry" />
        </mxCell>
        <mxCell id="XzS5bTZx3EFFYI8axKuy-35" value="" style="edgeStyle=orthogonalEdgeStyle;rounded=0;orthogonalLoop=1;jettySize=auto;html=1;" edge="1" parent="1" source="XzS5bTZx3EFFYI8axKuy-3" target="XzS5bTZx3EFFYI8axKuy-4">
          <mxGeometry relative="1" as="geometry" />
        </mxCell>
        <mxCell id="XzS5bTZx3EFFYI8axKuy-3" value="&lt;b&gt;Wallet&lt;br&gt;Discovery&lt;/b&gt;" style="ellipse;whiteSpace=wrap;html=1;aspect=fixed;" vertex="1" parent="1">
          <mxGeometry x="200" y="410" width="80" height="80" as="geometry" />
        </mxCell>
        <mxCell id="XzS5bTZx3EFFYI8axKuy-53" value="" style="edgeStyle=orthogonalEdgeStyle;rounded=0;orthogonalLoop=1;jettySize=auto;html=1;" edge="1" parent="1" source="XzS5bTZx3EFFYI8axKuy-4" target="XzS5bTZx3EFFYI8axKuy-11">
          <mxGeometry relative="1" as="geometry" />
        </mxCell>
        <mxCell id="XzS5bTZx3EFFYI8axKuy-4" value="&lt;b&gt;FCL Config&lt;/b&gt;" style="rounded=0;whiteSpace=wrap;html=1;" vertex="1" parent="1">
          <mxGeometry x="425" y="420" width="120" height="60" as="geometry" />
        </mxCell>
        <mxCell id="XzS5bTZx3EFFYI8axKuy-77" style="edgeStyle=orthogonalEdgeStyle;rounded=0;orthogonalLoop=1;jettySize=auto;html=1;" edge="1" parent="1" source="XzS5bTZx3EFFYI8axKuy-11" target="XzS5bTZx3EFFYI8axKuy-14">
          <mxGeometry relative="1" as="geometry" />
        </mxCell>
        <mxCell id="XzS5bTZx3EFFYI8axKuy-79" value="" style="edgeStyle=orthogonalEdgeStyle;rounded=0;orthogonalLoop=1;jettySize=auto;html=1;" edge="1" parent="1" source="XzS5bTZx3EFFYI8axKuy-11" target="XzS5bTZx3EFFYI8axKuy-75">
          <mxGeometry relative="1" as="geometry" />
        </mxCell>
        <mxCell id="XzS5bTZx3EFFYI8axKuy-11" value="&lt;b&gt;Default FCL Compatible Wallets&lt;/b&gt;" style="rounded=1;whiteSpace=wrap;html=1;" vertex="1" parent="1">
          <mxGeometry x="620" y="420" width="120" height="60" as="geometry" />
        </mxCell>
        <mxCell id="XzS5bTZx3EFFYI8axKuy-20" value="" style="edgeStyle=orthogonalEdgeStyle;rounded=0;orthogonalLoop=1;jettySize=auto;html=1;" edge="1" parent="1" source="XzS5bTZx3EFFYI8axKuy-14" target="XzS5bTZx3EFFYI8axKuy-19">
          <mxGeometry relative="1" as="geometry" />
        </mxCell>
        <mxCell id="XzS5bTZx3EFFYI8axKuy-78" style="edgeStyle=orthogonalEdgeStyle;rounded=0;orthogonalLoop=1;jettySize=auto;html=1;entryX=1;entryY=0.5;entryDx=0;entryDy=0;" edge="1" parent="1" source="XzS5bTZx3EFFYI8axKuy-14" target="XzS5bTZx3EFFYI8axKuy-19">
          <mxGeometry relative="1" as="geometry">
            <Array as="points">
              <mxPoint x="845" y="655" />
            </Array>
          </mxGeometry>
        </mxCell>
        <mxCell id="XzS5bTZx3EFFYI8axKuy-14" value="&lt;b&gt;Formula E compatible wallets&lt;/b&gt;" style="rounded=1;whiteSpace=wrap;html=1;" vertex="1" parent="1">
          <mxGeometry x="785" y="518" width="120" height="60" as="geometry" />
        </mxCell>
        <mxCell id="XzS5bTZx3EFFYI8axKuy-22" value="" style="edgeStyle=orthogonalEdgeStyle;rounded=0;orthogonalLoop=1;jettySize=auto;html=1;" edge="1" parent="1" source="XzS5bTZx3EFFYI8axKuy-19" target="XzS5bTZx3EFFYI8axKuy-21">
          <mxGeometry relative="1" as="geometry" />
        </mxCell>
        <mxCell id="XzS5bTZx3EFFYI8axKuy-19" value="&lt;b&gt;AUTHN&lt;/b&gt;" style="ellipse;whiteSpace=wrap;html=1;rounded=1;" vertex="1" parent="1">
          <mxGeometry x="640" y="615" width="80" height="80" as="geometry" />
        </mxCell>
        <mxCell id="XzS5bTZx3EFFYI8axKuy-32" style="edgeStyle=orthogonalEdgeStyle;rounded=0;orthogonalLoop=1;jettySize=auto;html=1;entryX=0;entryY=0.5;entryDx=0;entryDy=0;" edge="1" parent="1" source="XzS5bTZx3EFFYI8axKuy-21" target="XzS5bTZx3EFFYI8axKuy-25">
          <mxGeometry relative="1" as="geometry" />
        </mxCell>
        <mxCell id="XzS5bTZx3EFFYI8axKuy-33" style="edgeStyle=orthogonalEdgeStyle;rounded=0;orthogonalLoop=1;jettySize=auto;html=1;entryX=1;entryY=0.5;entryDx=0;entryDy=0;" edge="1" parent="1" source="XzS5bTZx3EFFYI8axKuy-21" target="XzS5bTZx3EFFYI8axKuy-23">
          <mxGeometry relative="1" as="geometry" />
        </mxCell>
        <mxCell id="XzS5bTZx3EFFYI8axKuy-34" style="edgeStyle=orthogonalEdgeStyle;rounded=0;orthogonalLoop=1;jettySize=auto;html=1;entryX=1;entryY=0.5;entryDx=0;entryDy=0;" edge="1" parent="1" source="XzS5bTZx3EFFYI8axKuy-21" target="XzS5bTZx3EFFYI8axKuy-27">
          <mxGeometry relative="1" as="geometry">
            <mxPoint x="380" y="894" as="targetPoint" />
          </mxGeometry>
        </mxCell>
        <mxCell id="XzS5bTZx3EFFYI8axKuy-21" value="&lt;b&gt;Current User&lt;br&gt;0xe3..&lt;/b&gt;" style="whiteSpace=wrap;html=1;rounded=1;" vertex="1" parent="1">
          <mxGeometry x="620" y="745" width="120" height="60" as="geometry" />
        </mxCell>
        <mxCell id="XzS5bTZx3EFFYI8axKuy-66" style="edgeStyle=orthogonalEdgeStyle;rounded=0;orthogonalLoop=1;jettySize=auto;html=1;entryX=1;entryY=0.5;entryDx=0;entryDy=0;" edge="1" parent="1" source="XzS5bTZx3EFFYI8axKuy-23" target="XzS5bTZx3EFFYI8axKuy-58">
          <mxGeometry relative="1" as="geometry">
            <Array as="points">
              <mxPoint x="400" y="644" />
              <mxPoint x="400" y="764" />
            </Array>
          </mxGeometry>
        </mxCell>
        <mxCell id="XzS5bTZx3EFFYI8axKuy-23" value="&lt;b&gt;Claim Reward&lt;/b&gt;" style="whiteSpace=wrap;html=1;rounded=1;" vertex="1" parent="1">
          <mxGeometry x="425" y="614" width="120" height="60" as="geometry" />
        </mxCell>
        <mxCell id="XzS5bTZx3EFFYI8axKuy-25" value="&lt;b&gt;Get Assets&lt;/b&gt;" style="whiteSpace=wrap;html=1;rounded=1;" vertex="1" parent="1">
          <mxGeometry x="785" y="745" width="120" height="60" as="geometry" />
        </mxCell>
        <mxCell id="XzS5bTZx3EFFYI8axKuy-65" style="edgeStyle=orthogonalEdgeStyle;rounded=0;orthogonalLoop=1;jettySize=auto;html=1;entryX=1;entryY=0.5;entryDx=0;entryDy=0;" edge="1" parent="1" source="XzS5bTZx3EFFYI8axKuy-27" target="XzS5bTZx3EFFYI8axKuy-58">
          <mxGeometry relative="1" as="geometry">
            <Array as="points">
              <mxPoint x="400" y="874" />
              <mxPoint x="400" y="764" />
            </Array>
          </mxGeometry>
        </mxCell>
        <mxCell id="XzS5bTZx3EFFYI8axKuy-27" value="&lt;b&gt;Player Stats&lt;/b&gt;" style="whiteSpace=wrap;html=1;rounded=1;" vertex="1" parent="1">
          <mxGeometry x="425" y="844" width="120" height="60" as="geometry" />
        </mxCell>
        <mxCell id="XzS5bTZx3EFFYI8axKuy-37" value="" style="edgeStyle=orthogonalEdgeStyle;rounded=0;orthogonalLoop=1;jettySize=auto;html=1;" edge="1" parent="1" source="XzS5bTZx3EFFYI8axKuy-36" target="XzS5bTZx3EFFYI8axKuy-3">
          <mxGeometry relative="1" as="geometry" />
        </mxCell>
        <mxCell id="XzS5bTZx3EFFYI8axKuy-36" value="&lt;font style=&quot;font-size: 14px;&quot;&gt;&lt;b&gt;99staz provider&lt;/b&gt;&lt;/font&gt;" style="rounded=0;whiteSpace=wrap;html=1;" vertex="1" parent="1">
          <mxGeometry x="-73" y="420" width="120" height="60" as="geometry" />
        </mxCell>
        <mxCell id="XzS5bTZx3EFFYI8axKuy-38" value="&lt;font style=&quot;font-size: 14px;&quot;&gt;&lt;b&gt;99staz APIs&lt;/b&gt;&lt;/font&gt;" style="rounded=0;whiteSpace=wrap;html=1;" vertex="1" parent="1">
          <mxGeometry x="-73" y="734" width="120" height="60" as="geometry" />
        </mxCell>
        <mxCell id="XzS5bTZx3EFFYI8axKuy-42" style="edgeStyle=orthogonalEdgeStyle;rounded=0;orthogonalLoop=1;jettySize=auto;html=1;entryX=0;entryY=0.5;entryDx=0;entryDy=0;" edge="1" parent="1" source="XzS5bTZx3EFFYI8axKuy-41" target="XzS5bTZx3EFFYI8axKuy-36">
          <mxGeometry relative="1" as="geometry" />
        </mxCell>
        <mxCell id="XzS5bTZx3EFFYI8axKuy-41" value="&lt;font style=&quot;font-size: 18px;&quot;&gt;&lt;b&gt;99starz wallet&lt;/b&gt;&lt;/font&gt;" style="whiteSpace=wrap;html=1;aspect=fixed;" vertex="1" parent="1">
          <mxGeometry x="-300" y="380" width="140" height="140" as="geometry" />
        </mxCell>
        <mxCell id="XzS5bTZx3EFFYI8axKuy-48" style="edgeStyle=orthogonalEdgeStyle;rounded=0;orthogonalLoop=1;jettySize=auto;html=1;entryX=0;entryY=0.5;entryDx=0;entryDy=0;" edge="1" parent="1" source="XzS5bTZx3EFFYI8axKuy-44" target="XzS5bTZx3EFFYI8axKuy-38">
          <mxGeometry relative="1" as="geometry" />
        </mxCell>
        <mxCell id="XzS5bTZx3EFFYI8axKuy-44" value="&lt;b&gt;ScholarShips&lt;/b&gt;" style="rounded=0;whiteSpace=wrap;html=1;" vertex="1" parent="1">
          <mxGeometry x="-300" y="638.5" width="150" height="45" as="geometry" />
        </mxCell>
        <mxCell id="XzS5bTZx3EFFYI8axKuy-49" style="edgeStyle=orthogonalEdgeStyle;rounded=0;orthogonalLoop=1;jettySize=auto;html=1;entryX=0;entryY=0.5;entryDx=0;entryDy=0;" edge="1" parent="1" source="XzS5bTZx3EFFYI8axKuy-45" target="XzS5bTZx3EFFYI8axKuy-38">
          <mxGeometry relative="1" as="geometry" />
        </mxCell>
        <mxCell id="XzS5bTZx3EFFYI8axKuy-45" value="&lt;b&gt;Payout&lt;/b&gt;" style="rounded=0;whiteSpace=wrap;html=1;" vertex="1" parent="1">
          <mxGeometry x="-300" y="689" width="150" height="45" as="geometry" />
        </mxCell>
        <mxCell id="XzS5bTZx3EFFYI8axKuy-50" style="edgeStyle=orthogonalEdgeStyle;rounded=0;orthogonalLoop=1;jettySize=auto;html=1;entryX=0;entryY=0.5;entryDx=0;entryDy=0;" edge="1" parent="1" source="XzS5bTZx3EFFYI8axKuy-46" target="XzS5bTZx3EFFYI8axKuy-38">
          <mxGeometry relative="1" as="geometry" />
        </mxCell>
        <mxCell id="XzS5bTZx3EFFYI8axKuy-46" value="&lt;b&gt;Badge&lt;/b&gt;" style="rounded=0;whiteSpace=wrap;html=1;" vertex="1" parent="1">
          <mxGeometry x="-300" y="741" width="150" height="45" as="geometry" />
        </mxCell>
        <mxCell id="XzS5bTZx3EFFYI8axKuy-52" value="&lt;h1&gt;99STARZ PLATFORM&lt;/h1&gt;" style="text;html=1;strokeColor=none;fillColor=none;spacing=5;spacingTop=-20;whiteSpace=wrap;overflow=hidden;rounded=0;" vertex="1" parent="1">
          <mxGeometry x="-460" y="300" width="190" height="120" as="geometry" />
        </mxCell>
        <mxCell id="XzS5bTZx3EFFYI8axKuy-55" value="&lt;h1&gt;Connectivity&lt;br&gt;Interface&lt;/h1&gt;" style="text;html=1;strokeColor=none;fillColor=none;spacing=5;spacingTop=-20;whiteSpace=wrap;overflow=hidden;rounded=0;align=center;" vertex="1" parent="1">
          <mxGeometry x="139" y="290" width="190" height="120" as="geometry" />
        </mxCell>
        <mxCell id="XzS5bTZx3EFFYI8axKuy-57" value="&lt;h1&gt;FORMULA E&lt;/h1&gt;" style="text;html=1;strokeColor=none;fillColor=none;spacing=5;spacingTop=-20;whiteSpace=wrap;overflow=hidden;rounded=0;" vertex="1" parent="1">
          <mxGeometry x="420" y="290" width="190" height="120" as="geometry" />
        </mxCell>
        <mxCell id="XzS5bTZx3EFFYI8axKuy-67" style="edgeStyle=orthogonalEdgeStyle;rounded=0;orthogonalLoop=1;jettySize=auto;html=1;" edge="1" parent="1" source="XzS5bTZx3EFFYI8axKuy-58" target="XzS5bTZx3EFFYI8axKuy-38">
          <mxGeometry relative="1" as="geometry" />
        </mxCell>
        <mxCell id="XzS5bTZx3EFFYI8axKuy-58" value="&lt;b&gt;API KEYS&lt;/b&gt;" style="ellipse;whiteSpace=wrap;html=1;aspect=fixed;" vertex="1" parent="1">
          <mxGeometry x="200" y="724" width="80" height="80" as="geometry" />
        </mxCell>
        <mxCell id="XzS5bTZx3EFFYI8axKuy-71" style="edgeStyle=orthogonalEdgeStyle;rounded=0;orthogonalLoop=1;jettySize=auto;html=1;entryX=0;entryY=0.5;entryDx=0;entryDy=0;" edge="1" parent="1" source="XzS5bTZx3EFFYI8axKuy-68" target="XzS5bTZx3EFFYI8axKuy-38">
          <mxGeometry relative="1" as="geometry" />
        </mxCell>
        <mxCell id="XzS5bTZx3EFFYI8axKuy-68" value="&lt;b&gt;Guild&lt;/b&gt;" style="rounded=0;whiteSpace=wrap;html=1;" vertex="1" parent="1">
          <mxGeometry x="-300" y="845" width="150" height="45" as="geometry" />
        </mxCell>
        <mxCell id="XzS5bTZx3EFFYI8axKuy-70" style="edgeStyle=orthogonalEdgeStyle;rounded=0;orthogonalLoop=1;jettySize=auto;html=1;entryX=0;entryY=0.5;entryDx=0;entryDy=0;" edge="1" parent="1" source="XzS5bTZx3EFFYI8axKuy-69" target="XzS5bTZx3EFFYI8axKuy-38">
          <mxGeometry relative="1" as="geometry" />
        </mxCell>
        <mxCell id="XzS5bTZx3EFFYI8axKuy-69" value="&lt;b&gt;Access control&lt;/b&gt;" style="rounded=0;whiteSpace=wrap;html=1;" vertex="1" parent="1">
          <mxGeometry x="-300" y="793" width="150" height="45" as="geometry" />
        </mxCell>
        <mxCell id="XzS5bTZx3EFFYI8axKuy-75" value="&lt;b&gt;Filter&lt;br&gt;wallets&lt;/b&gt;" style="rhombus;whiteSpace=wrap;html=1;" vertex="1" parent="1">
          <mxGeometry x="640" y="508" width="80" height="80" as="geometry" />
        </mxCell>
        <mxCell id="XzS5bTZx3EFFYI8axKuy-80" value="Yes" style="text;html=1;strokeColor=none;fillColor=none;align=center;verticalAlign=middle;whiteSpace=wrap;rounded=0;" vertex="1" parent="1">
          <mxGeometry x="720" y="520" width="60" height="30" as="geometry" />
        </mxCell>
        <mxCell id="XzS5bTZx3EFFYI8axKuy-81" value="No" style="text;html=1;strokeColor=none;fillColor=none;align=center;verticalAlign=middle;whiteSpace=wrap;rounded=0;" vertex="1" parent="1">
          <mxGeometry x="630" y="584" width="60" height="30" as="geometry" />
        </mxCell>
      </root>
    </mxGraphModel>
  </diagram>
</mxfile>
